HIERARCHY
ROOT Hips
{
	OFFSET -0.001795 -0.223333 0.028219
	CHANNELS 6 Xposition Yposition Zposition Zrotation Yrotation Xrotation 
	JOINT LeftUpLeg
	{
		OFFSET 0.069520 -0.091406 -0.006815
		CHANNELS 3 Zrotation Yrotation Xrotation
		JOINT LeftLeg
		{
			OFFSET 0.034277 -0.375199 -0.004496
			CHANNELS 3 Zrotation Yrotation Xrotation
			JOINT LeftFoot
			{
				OFFSET -0.013596 -0.397961 -0.043693
				CHANNELS 3 Zrotation Yrotation Xrotation
				JOINT LeftToe
				{
					OFFSET 0.026358 -0.055791 0.119288
					CHANNELS 3 Zrotation Yrotation Xrotation
					End Site
					{
						OFFSET 0.000000 0.000000 0.000000
					}
				}
			}
		}
	}
	JOINT RightUpLeg
	{
		OFFSET -0.067670 -0.090522 -0.004320
		CHANNELS 3 Zrotation Yrotation Xrotation
		JOINT RightLeg
		{
			OFFSET -0.038290 -0.382569 -0.008850
			CHANNELS 3 Zrotation Yrotation Xrotation
			JOINT RightFoot
			{
				OFFSET 0.015774 -0.398415 -0.042312
				CHANNELS 3 Zrotation Yrotation Xrotation
				JOINT RightToe
				{
					OFFSET -0.025372 -0.048144 0.123348
					CHANNELS 3 Zrotation Yrotation Xrotation
					End Site
					{
						OFFSET 0.000000 0.000000 0.000000
					}
				}
			}
		}
	}
	JOINT Spine
	{
		OFFSET -0.002533 0.108963 -0.026696
		CHANNELS 3 Zrotation Yrotation Xrotation
		JOINT Spine1
		{
			OFFSET 0.005487 0.135180 0.001092
			CHANNELS 3 Zrotation Yrotation Xrotation
			JOINT Spine2
			{
				OFFSET 0.001457 0.052922 0.025425
				CHANNELS 3 Zrotation Yrotation Xrotation
				JOINT Neck
				{
					OFFSET -0.002778 0.213870 -0.042857
					CHANNELS 3 Zrotation Yrotation Xrotation
					JOINT Head
					{
						OFFSET 0.005152 0.064970 0.051349
						CHANNELS 3 Zrotation Yrotation Xrotation
						End Site
						{
							OFFSET 0.000000 0.000000 0.000000
						}
					}
				}
				JOINT LeftShoulder
				{
					OFFSET 0.078845 0.121749 -0.034090
					CHANNELS 3 Zrotation Yrotation Xrotation
					JOINT LeftArm
					{
						OFFSET 0.090977 0.030469 -0.008868
						CHANNELS 3 Zrotation Yrotation Xrotation
						JOINT LeftForeArm
						{
							OFFSET 0.259612 -0.012772 -0.027456
							CHANNELS 3 Zrotation Yrotation Xrotation
							JOINT LeftHand
							{
								OFFSET 0.249234 0.008986 -0.001171
								CHANNELS 3 Zrotation Yrotation Xrotation
								End Site
								{
									OFFSET 0.000000 0.000000 0.000000
								}
							}
						}
					}
				}
				JOINT RightShoulder
				{
					OFFSET -0.081759 0.118833 -0.038615
					CHANNELS 3 Zrotation Yrotation Xrotation
					JOINT RightArm
					{
						OFFSET -0.096012 0.032551 -0.009143
						CHANNELS 3 Zrotation Yrotation Xrotation
						JOINT RightForeArm
						{
							OFFSET -0.253742 -0.013329 -0.021401
							CHANNELS 3 Zrotation Yrotation Xrotation
							JOINT RightHand
							{
								OFFSET -0.255298 0.007772 -0.005559
								CHANNELS 3 Zrotation Yrotation Xrotation
								End Site
								{
									OFFSET 0.000000 0.000000 0.000000
								}
							}
						}
					}
				}
			}
		}
	}
}
MOTION
Frames: 10
Frame Time: 0.050000
0.000000 0.947522 0.000000 -1.770730 3.415608 3.152474 2.941195 -0.205791 -2.009165 -0.004291 -0.012021 0.345639 0.933378 4.025201 4.765287 0.000000 0.000000 0.000000 -0.483458 0.560885 -5.667473 -2.076661 0.258995 0.506914 3.424448 4.564029 7.160641 0.000000 0.000000 0.000000 5.619065 0.344311 -5.284773 -1.232977 0.608543 -1.022421 -3.597242 3.147313 5.877927 12.824563 -7.255145 -11.921238 0.000000 0.000000 0.000000 -12.968887 -6.669326 0.909681 -52.491917 -8.907087 -2.422013 -124.929921 -66.339403 104.878498 0.000000 0.000000 0.000000 11.425730 -0.552618 -0.448634 58.717844 9.747700 -0.751750 109.392256 60.713469 86.441977 0.000000 0.000000 0.000000 
-0.001560 0.947060 0.001736 -2.439507 2.340105 4.056911 3.891588 -0.241638 -2.430539 -0.693700 0.066191 0.178221 2.048429 5.663253 3.594321 0.000000 0.000000 0.000000 0.165176 0.623381 -6.135088 -2.387869 0.262612 0.057878 4.452972 6.983399 6.737482 0.000000 0.000000 0.000000 6.675520 0.415799 -5.911221 -1.604572 0.758068 -0.069856 -3.647707 2.575719 4.760741 14.804994 -8.384673 -12.823108 0.000000 0.000000 0.000000 -14.132902 -6.260664 0.796698 -51.161269 -8.268713 -2.488648 -132.316688 -64.196029 112.533333 0.000000 0.000000 0.000000 10.987028 -1.749073 -1.175200 59.085292 7.968751 -1.545725 114.837955 54.377142 83.967046 0.000000 0.000000 0.000000 
-0.003365 0.946860 0.002790 -2.113440 1.400710 4.177045 3.753694 -0.204603 -1.889799 -0.547940 0.040883 0.556744 1.922840 5.243035 3.174771 0.000000 0.000000 0.000000 0.460833 0.676415 -6.596712 -2.902423 0.358424 0.747867 4.094434 6.622869 5.855155 0.000000 0.000000 0.000000 6.566030 0.406512 -5.776102 -0.511260 0.279213 -1.472679 -5.103102 1.984814 5.993610 14.001827 -8.149302 -12.157380 0.000000 0.000000 0.000000 -13.789666 -5.466574 0.653590 -50.964821 -9.118665 -2.280472 -135.615133 -63.308616 116.768946 0.000000 0.000000 0.000000 11.905223 -1.104025 -1.018156 57.813715 5.581491 -2.895678 117.714472 50.135415 81.335919 0.000000 0.000000 0.000000 
-0.005370 0.946542 0.003401 -2.333490 0.334306 4.425218 3.957584 -0.217021 -2.161832 -0.630873 0.036607 1.083468 2.782969 6.839439 3.017600 0.000000 0.000000 0.000000 0.909480 0.712954 -6.850690 -2.956916 0.379922 1.063283 4.705062 8.595430 4.866556 0.000000 0.000000 0.000000 6.958018 0.429330 -5.856795 -0.540287 0.278644 -1.033294 -4.695130 0.437871 5.541610 14.188506 -8.399917 -12.105983 0.000000 0.000000 0.000000 -14.116861 -4.679061 0.660168 -51.411779 -8.662757 -2.485059 -139.192319 -62.070219 121.927924 0.000000 0.000000 0.000000 10.652374 -1.759226 -1.543190 58.773352 5.013630 -3.214342 119.507176 45.767058 75.695804 0.000000 0.000000 0.000000 
-0.007596 0.946314 0.003476 -2.305581 -0.993399 4.417617 3.696150 -0.199568 -2.036488 -0.460894 -0.000034 1.731266 3.295414 7.791040 2.947403 0.000000 0.000000 0.000000 1.008867 0.713067 -6.858298 -3.239884 0.403515 1.029200 5.170687 9.572351 4.893465 0.000000 0.000000 0.000000 6.900565 0.381678 -5.280942 -0.270043 0.146779 -0.847951 -4.885869 -0.104527 5.510050 14.577423 -8.818817 -11.775346 0.000000 0.000000 0.000000 -13.700637 -5.710847 1.411193 -51.173906 -9.651242 -2.081264 -141.475140 -62.761894 126.670314 0.000000 0.000000 0.000000 9.850894 -1.423279 -1.464253 58.750885 3.940237 -3.803689 122.173009 42.312295 72.818048 0.000000 0.000000 0.000000 
-0.009838 0.946262 0.003289 -2.717434 -3.008933 4.208996 3.840010 -0.169381 -1.785604 -0.520958 -0.002837 2.283156 4.448634 9.933671 2.557369 0.000000 0.000000 0.000000 1.840303 0.725291 -6.842099 -3.928707 0.459257 0.889460 6.144718 11.248726 5.488381 0.000000 0.000000 0.000000 7.376063 0.343748 -4.601055 -0.284300 0.150467 -0.871729 -4.582935 -0.741084 5.697980 14.240985 -8.626635 -12.115255 0.000000 0.000000 0.000000 -13.803451 -5.604089 1.701193 -51.631267 -10.384598 -1.836367 -142.614158 -63.374542 130.141117 0.000000 0.000000 0.000000 9.448185 -0.783157 -1.346658 58.129289 3.317195 -4.182818 124.720546 40.749953 71.981588 0.000000 0.000000 0.000000 
-0.011789 0.946035 0.002890 -2.797631 -4.466818 4.116668 3.844965 -0.141793 -1.512779 -0.483347 -0.012388 2.618049 4.989659 11.073336 3.089410 0.000000 0.000000 0.000000 1.919766 0.745823 -7.041973 -3.924201 0.476766 1.230087 6.785583 12.643665 5.492155 0.000000 0.000000 0.000000 7.586026 0.322252 -4.231814 -0.413813 0.207178 -0.749481 -4.579187 -1.400833 5.949398 14.723453 -8.930221 -12.608653 0.000000 0.000000 0.000000 -13.418380 -5.994053 2.175975 -51.480226 -11.269879 -1.498834 -143.527034 -65.173045 134.005798 0.000000 0.000000 0.000000 9.062854 -0.691606 -1.422368 57.697406 3.331654 -4.246353 124.749049 39.824014 69.328901 0.000000 0.000000 0.000000 
-0.013209 0.945930 0.002306 -3.061107 -6.014326 3.995279 4.011893 -0.122495 -1.423281 -0.532310 -0.011633 3.108521 5.687680 12.418702 3.061279 0.000000 0.000000 0.000000 2.376886 0.768925 -7.190575 -3.999238 0.497605 1.502083 7.409408 13.953399 5.550831 0.000000 0.000000 0.000000 7.897143 0.288048 -3.734001 -0.505534 0.247906 -0.814078 -4.419866 -1.452104 6.176122 14.488210 -8.936501 -12.232409 0.000000 0.000000 0.000000 -13.459025 -6.362947 2.536341 -51.328449 -11.486313 -1.449350 -144.061853 -66.519532 136.476915 0.000000 0.000000 0.000000 8.866999 -0.389403 -1.366845 56.781949 3.331447 -4.238711 125.597668 39.657658 69.288530 0.000000 0.000000 0.000000 
-0.014001 0.945557 0.001570 -3.154702 -7.011046 3.871423 3.995961 -0.121489 -1.570686 -0.519947 -0.025553 3.880642 6.121123 13.252779 2.913513 0.000000 0.000000 0.000000 2.548288 0.782348 -7.293999 -4.188458 0.531160 1.724148 7.862144 14.820068 5.699792 0.000000 0.000000 0.000000 8.054289 0.256809 -3.346138 -0.581179 0.280976 -0.946433 -4.395826 -1.706106 6.631929 14.576746 -9.124962 -12.030589 0.000000 0.000000 0.000000 -13.383940 -6.495486 2.767563 -51.521632 -12.067801 -1.253471 -142.445200 -67.957651 135.979074 0.000000 0.000000 0.000000 8.873354 0.013070 -1.286882 56.170938 3.956808 -3.969338 124.356609 41.092709 69.420378 0.000000 0.000000 0.000000 
-0.014357 0.945438 0.000844 -3.176224 -8.130026 3.901935 4.002313 -0.127944 -1.844052 -0.727102 0.006107 4.318663 6.845300 14.680772 3.192328 0.000000 0.000000 0.000000 2.608211 0.819939 -7.613995 -4.372616 0.576643 2.096305 8.351178 15.623671 5.996376 0.000000 0.000000 0.000000 8.181239 0.247107 -3.169541 -0.648189 0.309900 -0.947514 -4.284564 -1.613643 6.845809 14.466721 -9.153072 -11.797482 0.000000 0.000000 0.000000 -13.649953 -6.532921 2.906079 -51.588601 -11.956782 -1.338679 -140.471988 -68.666863 134.239244 0.000000 0.000000 0.000000 9.153135 0.370667 -1.241156 55.373211 4.508685 -3.674766 123.801348 42.792041 70.941306 0.000000 0.000000 0.000000 
